<?xml version="1.0" encoding="utf-8"?>
<!-- Generator: Adobe Illustrator 27.5.0, SVG Export Plug-In . SVG Version: 6.00 Build 0)  -->
<svg version="1.1" id="Layer_2_00000090254901800265620800000010178011004444103567_"
	 xmlns="http://www.w3.org/2000/svg" xmlns:xlink="http://www.w3.org/1999/xlink" x="0px" y="0px" width="690.5px" height="614.2px"
	 viewBox="0 0 690.5 614.2" style="enable-background:new 0 0 690.5 614.2;" xml:space="preserve">
<style type="text/css">
	.st0{fill:#474748;}
	.st1{fill:#0076A8;}
	.st2{fill:#D78825;}
</style>
<g>
	<g>
		<path class="st0" d="M220.2,50.2L234.3,65V51h2v18.9l-14.1-14.8V69h-2V50.2z"/>
	</g>
	<g>
		<path class="st0" d="M241.4,50.2L255.5,65V51h2v18.9l-14.1-14.8V69h-2V50.2z"/>
	</g>
	<g>
		<path class="st0" d="M275.4,51c-1.4,3.6-1.9,7.6-1.9,11.5s0.6,7.9,1.9,11.5l-1.7,0.8c-1.7-3.6-2.2-8.4-2.2-12.3s0.5-8.8,2.2-12.3
			L275.4,51z"/>
	</g>
	<g>
		<path class="st0" d="M280.1,63.8c0,2.1,1.5,3.8,3.7,3.8c1.6,0,2.7-1,3.4-2.3l1.6,0.9c-1.1,2-2.9,3.2-5.2,3.2
			c-3.4,0-5.5-2.6-5.5-5.8c0-3.3,1.9-6.1,5.5-6.1s5.5,3,5.3,6.4L280.1,63.8L280.1,63.8z M287,62.2c-0.3-1.6-1.6-3-3.3-3
			c-1.7,0-3.2,1.3-3.4,3H287z"/>
	</g>
	<g>
		<path class="st0" d="M296,68c0,0.7-0.6,1.4-1.3,1.4s-1.3-0.6-1.3-1.4c0-0.7,0.6-1.3,1.3-1.3S296,67.3,296,68z"/>
	</g>
	<g>
		<path class="st0" d="M311.6,68.5c0,1.8,0,3.4-1.2,4.8c-1.1,1.3-2.7,2-4.4,2c-3.1,0-5.5-2-5.5-5.2h1.9c0,2.1,1.5,3.4,3.6,3.4
			c3,0,3.6-2.2,3.6-4.7v-1.3l0,0c-0.9,1.2-2.4,1.9-3.9,1.9c-3.3,0-5.4-2.8-5.4-5.9c0-3.2,2.1-6,5.4-6c1.6,0,2.9,0.7,3.8,1.9l0,0
			v-1.6h1.9v10.7C311.4,68.5,311.6,68.5,311.6,68.5z M302.3,63.3c0,2.2,1.3,4.3,3.7,4.3c2.5,0,3.8-2,3.8-4.3s-1.4-4.1-3.8-4.1
			C303.7,59.3,302.3,61.2,302.3,63.3z"/>
	</g>
	<g>
		<path class="st0" d="M319.7,68c0,0.7-0.6,1.4-1.3,1.4S317,68.8,317,68c0-0.7,0.6-1.3,1.3-1.3S319.7,67.3,319.7,68z"/>
	</g>
	<g>
		<path class="st0" d="M328.7,67.1l-2.7,6.1l-1.3-0.5l2.2-6.2L328.7,67.1z"/>
	</g>
	<g>
		<path class="st0" d="M342.3,51h3.4c2.7,0,4.9,0.4,7.1,2.2c2.1,1.8,3,4.2,3,6.9c0,2.6-1,5-3,6.7c-2.2,1.9-4.3,2.3-7.1,2.3h-3.4V51z
			 M345.8,67.2c2.2,0,4.1-0.3,5.7-1.9c1.5-1.4,2.3-3.3,2.3-5.3c0-2.1-0.8-4.1-2.4-5.4c-1.7-1.5-3.5-1.8-5.6-1.8h-1.5v14.3
			L345.8,67.2L345.8,67.2z"/>
	</g>
	<g>
		<path class="st0" d="M360.7,63.8c0,2.1,1.5,3.8,3.7,3.8c1.6,0,2.7-1,3.4-2.3l1.6,0.9c-1.1,2-2.9,3.2-5.2,3.2
			c-3.4,0-5.5-2.6-5.5-5.8c0-3.3,1.9-6.1,5.5-6.1s5.5,3,5.3,6.4L360.7,63.8L360.7,63.8z M367.5,62.2c-0.3-1.6-1.6-3-3.3-3
			c-1.7,0-3.2,1.3-3.4,3H367.5z"/>
	</g>
	<g>
		<path class="st0" d="M374.3,63.8c0,2.1,1.5,3.8,3.7,3.8c1.6,0,2.7-1,3.4-2.3l1.6,0.9c-1.1,2-2.9,3.2-5.2,3.2
			c-3.4,0-5.5-2.6-5.5-5.8c0-3.3,1.9-6.1,5.5-6.1s5.5,3,5.3,6.4L374.3,63.8L374.3,63.8z M381.2,62.2c-0.3-1.6-1.6-3-3.3-3
			c-1.7,0-3.2,1.3-3.4,3H381.2z"/>
	</g>
	<g>
		<path class="st0" d="M388.8,59.4L388.8,59.4c1-1.2,2.4-1.9,3.9-1.9c3.3,0,5.4,2.9,5.4,6c0,3.2-2,5.9-5.4,5.9c-1.5,0-3-0.7-3.9-1.9
			l0,0v7.9h-1.9V57.8h1.9V59.4z M388.8,63.3c0,2.2,1.3,4.3,3.7,4.3c2.5,0,3.8-2,3.8-4.3s-1.4-4.1-3.8-4.1
			C390.2,59.3,388.8,61.2,388.8,63.3z"/>
	</g>
	<g>
		<path class="st0" d="M412.7,67.2h5v1.9h-7V51h2V67.2z"/>
	</g>
	<g>
		<path class="st0" d="M421.8,63.8c0,2.1,1.5,3.8,3.7,3.8c1.6,0,2.7-1,3.4-2.3l1.6,0.9c-1.1,2-2.9,3.2-5.2,3.2
			c-3.4,0-5.5-2.6-5.5-5.8c0-3.3,1.9-6.1,5.5-6.1s5.5,3,5.3,6.4L421.8,63.8L421.8,63.8z M428.6,62.2c-0.3-1.6-1.6-3-3.3-3
			c-1.7,0-3.2,1.3-3.4,3H428.6z"/>
	</g>
	<g>
		<path class="st0" d="M444.8,69.1h-1.9v-1.6l0,0c-1,1.2-2.3,1.9-3.9,1.9c-3.3,0-5.4-2.8-5.4-5.9c0-3.2,2-6,5.4-6
			c1.5,0,2.9,0.7,3.9,1.9l0,0v-1.6h1.9V69.1z M435.5,63.3c0,2.2,1.3,4.3,3.7,4.3c2.5,0,3.8-2,3.8-4.3s-1.4-4.1-3.8-4.1
			C436.9,59.3,435.5,61.2,435.5,63.3z"/>
	</g>
	<g>
		<path class="st0" d="M451.3,59L451.3,59c0.7-0.9,1.3-1.5,2.5-1.5c0.6,0,1.2,0.2,1.7,0.5l-0.9,1.8c-0.4-0.3-0.6-0.5-1.2-0.5
			c-2.1,0-2.2,2.7-2.2,4.2v5.6h-1.9V57.8h1.9V59H451.3z"/>
	</g>
	<g>
		<path class="st0" d="M460.9,59.2L460.9,59.2c0.8-1.1,1.9-1.7,3.3-1.7c3.1,0,3.8,2.3,3.8,4.9v6.7h-2v-6.4c0-1.8-0.1-3.5-2.4-3.5
			c-2.6,0-2.8,2.4-2.8,4.5V69h-1.9V57.8h1.9L460.9,59.2L460.9,59.2z"/>
	</g>
	<g>
		<path class="st0" d="M475.5,53.6c0,0.8-0.6,1.4-1.4,1.4c-0.7,0-1.4-0.6-1.4-1.4c0-0.7,0.6-1.4,1.4-1.4
			C474.9,52.2,475.5,52.8,475.5,53.6z M475.1,69.1h-1.9V57.8h1.9V69.1z"/>
	</g>
	<g>
		<path class="st0" d="M482.2,59.2L482.2,59.2c0.8-1.1,1.9-1.7,3.3-1.7c3.1,0,3.8,2.3,3.8,4.9v6.7h-1.9v-6.4c0-1.8-0.1-3.5-2.4-3.5
			c-2.6,0-2.8,2.4-2.8,4.5V69h-1.9V57.8h1.9V59.2z"/>
	</g>
	<g>
		<path class="st0" d="M504.3,68.5c0,1.8,0,3.4-1.2,4.8c-1.1,1.3-2.7,2-4.4,2c-3.1,0-5.5-2-5.5-5.2h1.9c0,2.1,1.5,3.4,3.6,3.4
			c3,0,3.6-2.2,3.6-4.7v-1.3l0,0c-0.9,1.2-2.4,1.9-3.9,1.9c-3.3,0-5.4-2.8-5.4-5.9c0-3.2,2.1-6,5.4-6c1.6,0,2.9,0.7,3.8,1.9l0,0
			v-1.6h1.9v10.7C504.1,68.5,504.3,68.5,504.3,68.5z M495,63.3c0,2.2,1.3,4.3,3.7,4.3c2.5,0,3.8-2,3.8-4.3s-1.4-4.1-3.8-4.1
			C496.5,59.3,495,61.2,495,63.3z"/>
	</g>
	<g>
		<path class="st0" d="M509.9,50.2c1.7,3.6,2.2,8.4,2.2,12.3s-0.5,8.8-2.2,12.3l-1.7-0.8c1.4-3.6,1.9-7.6,1.9-11.5
			s-0.6-7.9-1.9-11.5L509.9,50.2z"/>
	</g>
</g>
<g>
	<g>
		<path class="st0" d="M394.1,282.2h2.7l-8.5,8.4l8.8,9.7h-2.8l-7.4-8.3l-0.5,0.5v7.8h-2v-18.1h2v7.7L394.1,282.2z"/>
	</g>
	<g>
		<path class="st0" d="M403.3,293.6v1.8h-4.9v-1.8H403.3z"/>
	</g>
	<g>
		<path class="st0" d="M406.5,281.4l14.1,14.8v-14h2v18.9l-14.1-14.8v13.9h-2V281.4z"/>
	</g>
	<g>
		<path class="st0" d="M427.7,281.4l14.1,14.8v-14h2v18.9l-14.1-14.8v13.9h-2V281.4z"/>
	</g>
</g>
<g>
	<g>
		<path class="st0" d="M438.4,362.3h3.4c2.7,0,4.9,0.4,7.1,2.2c2.1,1.8,3,4.2,3,6.9c0,2.6-1,5-3,6.7c-2.2,1.9-4.3,2.3-7.1,2.3h-3.4
			V362.3z M441.8,378.5c2.2,0,4.1-0.3,5.7-1.9c1.5-1.4,2.3-3.3,2.3-5.3c0-2.1-0.8-4.1-2.4-5.4c-1.7-1.5-3.5-1.8-5.6-1.8h-1.5v14.3
			L441.8,378.5L441.8,378.5z"/>
	</g>
	<g>
		<path class="st0" d="M456.8,375.2c0,2.1,1.5,3.8,3.7,3.8c1.6,0,2.7-1,3.4-2.3l1.6,0.9c-1.1,2-2.9,3.2-5.2,3.2
			c-3.4,0-5.5-2.6-5.5-5.8c0-3.3,1.9-6.1,5.5-6.1s5.5,3,5.3,6.4h-8.8V375.2z M463.6,373.5c-0.3-1.6-1.6-3-3.3-3
			c-1.7,0-3.2,1.3-3.4,3H463.6z"/>
	</g>
	<g>
		<path class="st0" d="M477.8,372.5L477.8,372.5c-0.9-1.1-2-1.9-3.6-1.9c-2.3,0-4,1.9-4,4.2c0,2.2,1.5,4.2,3.9,4.2
			c1.6,0,2.7-0.7,3.7-1.9l0,0v2.6c-1.1,0.7-2.2,1.2-3.6,1.2c-3.4,0-6-2.5-6-5.9s2.7-5.9,6-5.9c1.2,0,2.5,0.4,3.5,1.1v2.3
			L477.8,372.5L477.8,372.5z"/>
	</g>
	<g>
		<path class="st0" d="M484.8,364.9c0,0.8-0.6,1.4-1.4,1.4c-0.7,0-1.4-0.6-1.4-1.4c0-0.7,0.6-1.4,1.4-1.4
			C484.2,363.5,484.8,364.1,484.8,364.9z M484.4,380.4h-1.9v-11.3h1.9V380.4z"/>
	</g>
	<g>
		<path class="st0" d="M494.1,371.7c-0.3-0.6-0.8-1.2-1.5-1.2s-1.4,0.5-1.4,1.2c0,1,1.3,1.4,2.6,2c1.3,0.6,2.6,1.3,2.6,3.2
			c0,2.1-1.7,3.7-3.8,3.7c-1.9,0-3.4-1.1-4-2.9l1.7-0.7c0.5,1.1,1,1.8,2.3,1.8c1,0,1.8-0.7,1.8-1.7c0-2.5-5.1-1.7-5.1-5.2
			c0-1.9,1.5-3.2,3.4-3.2c1.3,0,2.5,0.9,3,2.1L494.1,371.7z"/>
	</g>
	<g>
		<path class="st0" d="M503,364.9c0,0.8-0.6,1.4-1.4,1.4c-0.7,0-1.4-0.6-1.4-1.4c0-0.7,0.6-1.4,1.4-1.4S503,364.1,503,364.9z
			 M502.6,380.4h-1.9v-11.3h1.9V380.4z"/>
	</g>
	<g>
		<path class="st0" d="M506.8,374.8c0-3.3,2.6-6,5.9-6c3.3,0,5.9,2.7,5.9,6s-2.6,5.9-5.9,5.9S506.8,378.1,506.8,374.8z M508.7,374.7
			c0,2.3,1.6,4.2,4,4.2c2.4,0,4-1.9,4-4.2c0-2.3-1.6-4.2-4-4.2S508.7,372.5,508.7,374.7z"/>
	</g>
	<g>
		<path class="st0" d="M524.4,370.5L524.4,370.5c0.8-1.1,1.9-1.7,3.3-1.7c3.1,0,3.8,2.3,3.8,4.9v6.7h-1.9V374c0-1.8-0.1-3.5-2.4-3.5
			c-2.6,0-2.8,2.4-2.8,4.5v5.3h-1.9V369h1.9L524.4,370.5L524.4,370.5z"/>
	</g>
	<g>
		<path class="st0" d="M549.7,380.4h-2v-16.2h-4.4v-1.9h10.8v1.9h-4.4L549.7,380.4L549.7,380.4z"/>
	</g>
	<g>
		<path class="st0" d="M558.3,370.3L558.3,370.3c0.7-0.9,1.3-1.5,2.5-1.5c0.6,0,1.2,0.2,1.7,0.5l-0.9,1.8c-0.4-0.3-0.6-0.5-1.2-0.5
			c-2.1,0-2.2,2.7-2.2,4.2v5.6h-1.9v-11.3h1.9v1.2L558.3,370.3L558.3,370.3z"/>
	</g>
	<g>
		<path class="st0" d="M566.6,375.2c0,2.1,1.5,3.8,3.7,3.8c1.6,0,2.7-1,3.4-2.3l1.6,0.9c-1.1,2-2.9,3.2-5.2,3.2
			c-3.4,0-5.5-2.6-5.5-5.8c0-3.3,1.9-6.1,5.5-6.1s5.5,3,5.3,6.4h-8.8V375.2z M573.5,373.5c-0.3-1.6-1.6-3-3.3-3s-3.2,1.3-3.4,3
			H573.5z"/>
	</g>
	<g>
		<path class="st0" d="M580.3,375.2c0,2.1,1.5,3.8,3.7,3.8c1.6,0,2.7-1,3.4-2.3l1.6,0.9c-1.1,2-2.9,3.2-5.2,3.2
			c-3.4,0-5.5-2.6-5.5-5.8c0-3.3,1.9-6.1,5.5-6.1s5.5,3,5.3,6.4h-8.8V375.2z M587.1,373.5c-0.3-1.6-1.6-3-3.3-3s-3.2,1.3-3.4,3
			H587.1z"/>
	</g>
</g>
<g>
	<g>
		<path class="st0" d="M267.1,426h5v1.9h-7v-18.1h2V426z"/>
	</g>
	<g>
		<path class="st0" d="M274.3,422.3c0-3.3,2.6-6,5.9-6s5.9,2.7,5.9,6s-2.6,5.9-5.9,5.9S274.3,425.6,274.3,422.3z M276.2,422.3
			c0,2.3,1.6,4.2,4,4.2s4-1.9,4-4.2c0-2.3-1.6-4.2-4-4.2C277.8,418.1,276.2,420,276.2,422.3z"/>
	</g>
	<g>
		<path class="st0" d="M300.1,427.4c0,1.8,0,3.4-1.2,4.8c-1.1,1.3-2.7,2-4.4,2c-3.1,0-5.5-2-5.5-5.2h1.9c0,2.1,1.5,3.4,3.6,3.4
			c3,0,3.6-2.2,3.6-4.7v-1.3l0,0c-0.9,1.2-2.4,1.9-3.9,1.9c-3.3,0-5.4-2.8-5.4-5.9c0-3.2,2.1-6,5.4-6c1.6,0,2.9,0.7,3.8,1.9l0,0
			v-1.6h1.9v10.7L300.1,427.4L300.1,427.4z M290.9,422.2c0,2.2,1.3,4.3,3.7,4.3c2.5,0,3.8-2,3.8-4.3s-1.4-4.1-3.8-4.1
			C292.3,418.1,290.9,420,290.9,422.2z"/>
	</g>
	<g>
		<path class="st0" d="M307.8,412.4c0,0.8-0.6,1.4-1.4,1.4s-1.4-0.6-1.4-1.4c0-0.7,0.6-1.4,1.4-1.4S307.8,411.6,307.8,412.4z
			 M307.4,427.9h-1.9v-11.3h1.9V427.9z"/>
	</g>
	<g>
		<path class="st0" d="M317.1,419.2c-0.3-0.6-0.8-1.2-1.5-1.2s-1.4,0.5-1.4,1.2c0,1,1.3,1.4,2.6,2c1.3,0.6,2.6,1.3,2.6,3.2
			c0,2.1-1.7,3.7-3.8,3.7c-1.9,0-3.4-1.1-4-2.9l1.7-0.7c0.5,1.1,1,1.8,2.3,1.8c1,0,1.8-0.7,1.8-1.7c0-2.5-5.1-1.7-5.1-5.2
			c0-1.9,1.5-3.2,3.4-3.2c1.3,0,2.5,0.9,3,2.1L317.1,419.2z"/>
	</g>
	<g>
		<path class="st0" d="M325.3,427.9h-1.9v-9.5h-1.2v-1.8h1.2v-4.1h1.9v4.1h2v1.8h-2V427.9z"/>
	</g>
	<g>
		<path class="st0" d="M333,412.4c0,0.8-0.6,1.4-1.4,1.4c-0.7,0-1.4-0.6-1.4-1.4c0-0.7,0.6-1.4,1.4-1.4S333,411.6,333,412.4z
			 M332.6,427.9h-1.9v-11.3h1.9V427.9z"/>
	</g>
	<g>
		<path class="st0" d="M346.1,420L346.1,420c-0.9-1.1-2-1.9-3.5-1.9c-2.3,0-4,1.9-4,4.2c0,2.2,1.5,4.2,3.9,4.2
			c1.6,0,2.7-0.7,3.7-1.9l0,0v2.6c-1.1,0.7-2.2,1.2-3.6,1.2c-3.4,0-6-2.5-6-5.9s2.7-5.9,6-5.9c1.2,0,2.5,0.4,3.5,1.1V420z"/>
	</g>
	<g>
		<path class="st0" d="M361,427.9h-2v-18.1h2.6c3.4,0,6.6,0.9,6.6,5c0,2.8-1.8,4.7-4.5,5l5.8,8.1H367l-5.5-7.9H361V427.9z
			 M361,418.2h0.6c2.3,0,4.6-0.4,4.6-3.2c0-3-2.2-3.3-4.6-3.3H361V418.2z"/>
	</g>
	<g>
		<path class="st0" d="M374.1,422.7c0,2.1,1.5,3.8,3.7,3.8c1.6,0,2.7-1,3.4-2.3l1.6,0.9c-1.1,2-2.9,3.2-5.2,3.2
			c-3.4,0-5.5-2.6-5.5-5.8c0-3.3,1.9-6.1,5.5-6.1s5.5,3,5.3,6.4h-8.8V422.7z M381,421c-0.3-1.6-1.6-3-3.3-3c-1.7,0-3.2,1.3-3.4,3
			H381z"/>
	</g>
	<g>
		<path class="st0" d="M397,427.4c0,1.8,0,3.4-1.2,4.8c-1.1,1.3-2.7,2-4.4,2c-3.1,0-5.5-2-5.5-5.2h1.9c0,2.1,1.5,3.4,3.6,3.4
			c3,0,3.6-2.2,3.6-4.7v-1.3l0,0c-0.9,1.2-2.4,1.9-3.9,1.9c-3.3,0-5.4-2.8-5.4-5.9c0-3.2,2.1-6,5.4-6c1.6,0,2.9,0.7,3.8,1.9l0,0
			v-1.6h1.9v10.7L397,427.4L397,427.4z M387.7,422.2c0,2.2,1.3,4.3,3.7,4.3c2.5,0,3.8-2,3.8-4.3s-1.4-4.1-3.8-4.1
			C389.1,418.1,387.7,420,387.7,422.2z"/>
	</g>
	<g>
		<path class="st0" d="M403.7,417.9L403.7,417.9c0.7-0.9,1.3-1.5,2.5-1.5c0.6,0,1.2,0.2,1.7,0.5l-0.9,1.8c-0.4-0.3-0.6-0.5-1.2-0.5
			c-2.1,0-2.2,2.7-2.2,4.2v5.6h-1.9v-11.3h1.9v1.2L403.7,417.9L403.7,417.9z"/>
	</g>
	<g>
		<path class="st0" d="M412.1,422.7c0,2.1,1.5,3.8,3.7,3.8c1.6,0,2.7-1,3.4-2.3l1.6,0.9c-1.1,2-2.9,3.2-5.2,3.2
			c-3.4,0-5.5-2.6-5.5-5.8c0-3.3,1.9-6.1,5.5-6.1s5.5,3,5.3,6.4h-8.8V422.7z M418.9,421c-0.3-1.6-1.6-3-3.3-3c-1.7,0-3.2,1.3-3.4,3
			H418.9z"/>
	</g>
	<g>
		<path class="st0" d="M429.4,419.2c-0.3-0.6-0.8-1.2-1.5-1.2s-1.4,0.5-1.4,1.2c0,1,1.3,1.4,2.6,2c1.3,0.6,2.6,1.3,2.6,3.2
			c0,2.1-1.7,3.7-3.8,3.7c-1.9,0-3.4-1.1-4-2.9l1.7-0.7c0.5,1.1,1,1.8,2.3,1.8c1,0,1.8-0.7,1.8-1.7c0-2.5-5.1-1.7-5.1-5.2
			c0-1.9,1.5-3.2,3.4-3.2c1.3,0,2.5,0.9,3,2.1L429.4,419.2z"/>
	</g>
	<g>
		<path class="st0" d="M440.1,419.2c-0.3-0.6-0.8-1.2-1.5-1.2s-1.4,0.5-1.4,1.2c0,1,1.3,1.4,2.6,2c1.3,0.6,2.6,1.3,2.6,3.2
			c0,2.1-1.7,3.7-3.8,3.7c-1.9,0-3.4-1.1-4-2.9l1.7-0.7c0.5,1.1,1,1.8,2.3,1.8c1,0,1.8-0.7,1.8-1.7c0-2.5-5.1-1.7-5.1-5.2
			c0-1.9,1.5-3.2,3.4-3.2c1.3,0,2.5,0.9,3,2.1L440.1,419.2z"/>
	</g>
	<g>
		<path class="st0" d="M449,412.4c0,0.8-0.6,1.4-1.4,1.4c-0.7,0-1.4-0.6-1.4-1.4c0-0.7,0.6-1.4,1.4-1.4S449,411.6,449,412.4z
			 M448.6,427.9h-1.9v-11.3h1.9V427.9z"/>
	</g>
	<g>
		<path class="st0" d="M452.8,422.3c0-3.3,2.6-6,5.9-6s5.9,2.7,5.9,6s-2.6,5.9-5.9,5.9S452.8,425.6,452.8,422.3z M454.7,422.3
			c0,2.3,1.6,4.2,4,4.2s4-1.9,4-4.2c0-2.3-1.6-4.2-4-4.2S454.7,420,454.7,422.3z"/>
	</g>
	<g>
		<path class="st0" d="M470.4,418L470.4,418c0.8-1.1,1.9-1.7,3.3-1.7c3.1,0,3.8,2.3,3.8,4.9v6.7h-1.9v-6.4c0-1.8-0.1-3.5-2.4-3.5
			c-2.6,0-2.8,2.4-2.8,4.5v5.3h-1.9v-11.3h1.9V418z"/>
	</g>
</g>
<g>
	<g>
		<path class="st0" d="M483.5,486.3h5v1.9h-7v-18.1h2V486.3z"/>
	</g>
	<g>
		<path class="st0" d="M494.3,472.7c0,0.8-0.6,1.4-1.4,1.4s-1.4-0.6-1.4-1.4c0-0.7,0.6-1.4,1.4-1.4S494.3,471.9,494.3,472.7z
			 M493.9,488.2H492v-11.3h1.9V488.2z"/>
	</g>
	<g>
		<path class="st0" d="M501,478.3L501,478.3c0.8-1.1,1.9-1.7,3.3-1.7c3.1,0,3.8,2.3,3.8,4.9v6.7h-1.9v-6.4c0-1.8-0.1-3.5-2.4-3.5
			c-2.6,0-2.8,2.4-2.8,4.5v5.3h-1.9v-11.3h1.9V478.3z"/>
	</g>
	<g>
		<path class="st0" d="M513.9,483c0,2.1,1.5,3.8,3.7,3.8c1.6,0,2.7-1,3.4-2.3l1.6,0.9c-1.1,2-2.9,3.2-5.2,3.2
			c-3.4,0-5.5-2.6-5.5-5.8c0-3.3,1.9-6.1,5.5-6.1s5.5,3,5.3,6.4h-8.8V483z M520.8,481.3c-0.3-1.6-1.6-3-3.3-3s-3.2,1.3-3.4,3H520.8z
			"/>
	</g>
	<g>
		<path class="st0" d="M536.9,488.2H535v-1.6l0,0c-1,1.2-2.3,1.9-3.9,1.9c-3.3,0-5.4-2.8-5.4-5.9c0-3.2,2-6,5.4-6
			c1.5,0,2.9,0.7,3.9,1.9l0,0v-1.6h1.9V488.2z M527.6,482.4c0,2.2,1.3,4.3,3.7,4.3c2.5,0,3.8-2,3.8-4.3s-1.4-4.1-3.8-4.1
			C529.1,478.4,527.6,480.3,527.6,482.4z"/>
	</g>
	<g>
		<path class="st0" d="M543.5,478.1L543.5,478.1c0.7-0.9,1.3-1.5,2.5-1.5c0.6,0,1.2,0.2,1.7,0.5l-0.9,1.8c-0.4-0.3-0.6-0.5-1.2-0.5
			c-2.1,0-2.2,2.7-2.2,4.2v5.6h-1.9v-11.3h1.9v1.2L543.5,478.1L543.5,478.1z"/>
	</g>
	<g>
		<path class="st0" d="M561.5,488.2h-2v-18.1h2.6c3.4,0,6.6,0.9,6.6,5c0,2.8-1.8,4.7-4.5,5l5.8,8.1h-2.5l-5.5-7.9h-0.5L561.5,488.2
			L561.5,488.2z M561.5,478.5h0.6c2.3,0,4.6-0.4,4.6-3.2c0-3-2.2-3.3-4.6-3.3h-0.6V478.5z"/>
	</g>
	<g>
		<path class="st0" d="M574.6,483c0,2.1,1.5,3.8,3.7,3.8c1.6,0,2.7-1,3.4-2.3l1.6,0.9c-1.1,2-2.9,3.2-5.2,3.2
			c-3.4,0-5.5-2.6-5.5-5.8c0-3.3,1.9-6.1,5.5-6.1s5.5,3,5.3,6.4h-8.8V483z M581.5,481.3c-0.3-1.6-1.6-3-3.3-3s-3.2,1.3-3.4,3H581.5z
			"/>
	</g>
	<g>
		<path class="st0" d="M597.5,487.6c0,1.8,0,3.4-1.2,4.8c-1.1,1.3-2.7,2-4.4,2c-3.1,0-5.5-2-5.5-5.2h1.9c0,2.1,1.5,3.4,3.6,3.4
			c3,0,3.6-2.2,3.6-4.7v-1.3l0,0c-0.9,1.2-2.4,1.9-3.9,1.9c-3.3,0-5.4-2.8-5.4-5.9c0-3.2,2.1-6,5.4-6c1.6,0,2.9,0.7,3.8,1.9l0,0
			v-1.6h1.9v10.7L597.5,487.6L597.5,487.6z M588.2,482.4c0,2.2,1.3,4.3,3.7,4.3c2.5,0,3.8-2,3.8-4.3s-1.4-4.1-3.8-4.1
			C589.6,478.4,588.2,480.3,588.2,482.4z"/>
	</g>
	<g>
		<path class="st0" d="M604.2,478.1L604.2,478.1c0.7-0.9,1.3-1.5,2.5-1.5c0.6,0,1.2,0.2,1.7,0.5l-0.9,1.8c-0.4-0.3-0.6-0.5-1.2-0.5
			c-2.1,0-2.2,2.7-2.2,4.2v5.6h-1.9v-11.3h1.9v1.2L604.2,478.1L604.2,478.1z"/>
	</g>
	<g>
		<path class="st0" d="M612.6,483c0,2.1,1.5,3.8,3.7,3.8c1.6,0,2.7-1,3.4-2.3l1.6,0.9c-1.1,2-2.9,3.2-5.2,3.2
			c-3.4,0-5.5-2.6-5.5-5.8c0-3.3,1.9-6.1,5.5-6.1s5.5,3,5.3,6.4h-8.8V483z M619.5,481.3c-0.3-1.6-1.6-3-3.3-3s-3.2,1.3-3.4,3H619.5z
			"/>
	</g>
	<g>
		<path class="st0" d="M629.9,479.5c-0.3-0.6-0.8-1.2-1.5-1.2s-1.4,0.5-1.4,1.2c0,1,1.3,1.4,2.6,2s2.6,1.3,2.6,3.2
			c0,2.1-1.7,3.7-3.8,3.7c-1.9,0-3.4-1.1-4-2.9l1.7-0.7c0.5,1.1,1,1.8,2.3,1.8c1,0,1.8-0.7,1.8-1.7c0-2.5-5.1-1.7-5.1-5.2
			c0-1.9,1.5-3.2,3.4-3.2c1.3,0,2.5,0.9,3,2.1L629.9,479.5z"/>
	</g>
	<g>
		<path class="st0" d="M640.6,479.5c-0.3-0.6-0.8-1.2-1.5-1.2s-1.4,0.5-1.4,1.2c0,1,1.3,1.4,2.6,2s2.6,1.3,2.6,3.2
			c0,2.1-1.7,3.7-3.8,3.7c-1.9,0-3.4-1.1-4-2.9l1.7-0.7c0.5,1.1,1,1.8,2.3,1.8c1,0,1.8-0.7,1.8-1.7c0-2.5-5.1-1.7-5.1-5.2
			c0-1.9,1.5-3.2,3.4-3.2c1.3,0,2.5,0.9,3,2.1L640.6,479.5z"/>
	</g>
	<g>
		<path class="st0" d="M649.5,472.7c0,0.8-0.6,1.4-1.4,1.4c-0.7,0-1.4-0.6-1.4-1.4c0-0.7,0.6-1.4,1.4-1.4
			C648.9,471.3,649.5,471.9,649.5,472.7z M649.1,488.2h-1.9v-11.3h1.9V488.2z"/>
	</g>
	<g>
		<path class="st0" d="M653.3,482.6c0-3.3,2.6-6,5.9-6s5.9,2.7,5.9,6s-2.6,5.9-5.9,5.9S653.3,485.9,653.3,482.6z M655.2,482.6
			c0,2.3,1.6,4.2,4,4.2s4-1.9,4-4.2c0-2.3-1.6-4.2-4-4.2S655.2,480.3,655.2,482.6z"/>
	</g>
	<g>
		<path class="st0" d="M670.9,478.3L670.9,478.3c0.8-1.1,1.9-1.7,3.3-1.7c3.1,0,3.8,2.3,3.8,4.9v6.7h-1.9v-6.4
			c0-1.8-0.1-3.5-2.4-3.5c-2.6,0-2.8,2.4-2.8,4.5v5.3H669v-11.3h1.9V478.3z"/>
	</g>
</g>
<g>
	<g>
		<path class="st0" d="M275.6,180.8h-2v-18.1h2.6c3.4,0,6.6,0.9,6.6,5c0,2.8-1.8,4.7-4.5,5l5.8,8.1h-2.5l-5.5-7.9h-0.5V180.8z
			 M275.6,171.1h0.6c2.3,0,4.6-0.4,4.6-3.2c0-3-2.2-3.3-4.6-3.3h-0.6V171.1z"/>
	</g>
	<g>
		<path class="st0" d="M298.1,180.8h-1.9v-1.6l0,0c-1,1.2-2.3,1.9-3.9,1.9c-3.3,0-5.4-2.8-5.4-5.9c0-3.2,2-6,5.4-6
			c1.5,0,2.9,0.7,3.9,1.9l0,0v-1.6h1.9V180.8z M288.8,175.1c0,2.2,1.3,4.3,3.7,4.3c2.5,0,3.8-2,3.8-4.3s-1.4-4.1-3.8-4.1
			C290.3,171,288.8,172.9,288.8,175.1z"/>
	</g>
	<g>
		<path class="st0" d="M304.8,170.9L304.8,170.9c0.8-1.1,1.9-1.7,3.3-1.7c3.1,0,3.8,2.3,3.8,4.9v6.7H310v-6.4c0-1.8-0.1-3.5-2.4-3.5
			c-2.6,0-2.8,2.4-2.8,4.5v5.3h-1.9v-11.3h1.9L304.8,170.9L304.8,170.9z"/>
	</g>
	<g>
		<path class="st0" d="M325.1,179.3L325.1,179.3c-1,1.2-2.4,1.9-3.9,1.9c-3.3,0-5.4-2.8-5.4-5.9c0-3.2,2-6,5.4-6
			c1.5,0,3,0.7,3.9,1.9l0,0V161h1.9v19.8h-1.9V179.3z M317.7,175.1c0,2.2,1.3,4.3,3.7,4.3c2.5,0,3.8-2,3.8-4.3s-1.4-4.1-3.8-4.1
			C319.2,171,317.7,172.9,317.7,175.1z"/>
	</g>
	<g>
		<path class="st0" d="M330.8,175.2c0-3.3,2.6-6,5.9-6s5.9,2.7,5.9,6s-2.6,5.9-5.9,5.9S330.8,178.5,330.8,175.2z M332.7,175.2
			c0,2.3,1.6,4.2,4,4.2s4-1.9,4-4.2s-1.6-4.2-4-4.2S332.7,172.9,332.7,175.2z"/>
	</g>
	<g>
		<path class="st0" d="M348.4,170.8L348.4,170.8c0.6-0.9,1.6-1.5,2.8-1.5c1.3,0,2.5,0.7,3.1,1.9c0.7-1.2,2-1.9,3.4-1.9
			c2.9,0,3.6,2.4,3.6,4.7v6.9h-1.9v-6.5c0-1.5-0.1-3.3-2.1-3.3c-2.2,0-2.4,2.1-2.4,3.8v6H353v-6.4c0-1.4-0.2-3.4-2-3.4
			c-2.3,0-2.5,2.3-2.5,4v5.8h-1.9v-11.3h1.9v1.2H348.4z"/>
	</g>
	<g>
		<path class="st0" d="M376.7,164.6v5.4h6v1.9h-6v9h-2v-18.1h8.2v1.9L376.7,164.6L376.7,164.6z"/>
	</g>
	<g>
		<path class="st0" d="M386.3,175.2c0-3.3,2.6-6,5.9-6s5.9,2.7,5.9,6s-2.6,5.9-5.9,5.9S386.3,178.5,386.3,175.2z M388.2,175.2
			c0,2.3,1.6,4.2,4,4.2s4-1.9,4-4.2s-1.6-4.2-4-4.2S388.2,172.9,388.2,175.2z"/>
	</g>
	<g>
		<path class="st0" d="M403.8,170.8L403.8,170.8c0.7-0.9,1.3-1.5,2.5-1.5c0.6,0,1.2,0.2,1.7,0.5l-0.9,1.8c-0.4-0.3-0.6-0.5-1.2-0.5
			c-2.1,0-2.2,2.7-2.2,4.2v5.6h-1.9v-11.3h1.9v1.2H403.8z"/>
	</g>
	<g>
		<path class="st0" d="M412.2,175.6c0,2.1,1.5,3.8,3.7,3.8c1.6,0,2.7-1,3.4-2.3l1.6,0.9c-1.1,2-2.9,3.2-5.2,3.2
			c-3.4,0-5.5-2.6-5.5-5.8c0-3.3,1.9-6.1,5.5-6.1s5.5,3,5.3,6.4L412.2,175.6L412.2,175.6z M419,174c-0.3-1.6-1.6-3-3.3-3
			c-1.7,0-3.2,1.3-3.4,3H419z"/>
	</g>
	<g>
		<path class="st0" d="M429.4,172.2c-0.3-0.6-0.8-1.2-1.5-1.2s-1.4,0.5-1.4,1.2c0,1,1.3,1.4,2.6,2c1.3,0.6,2.6,1.3,2.6,3.2
			c0,2.1-1.7,3.7-3.8,3.7c-1.9,0-3.4-1.1-4-2.9l1.7-0.7c0.5,1.1,1,1.8,2.3,1.8c1,0,1.8-0.7,1.8-1.7c0-2.5-5.1-1.7-5.1-5.2
			c0-1.9,1.5-3.2,3.4-3.2c1.3,0,2.5,0.9,3,2.1L429.4,172.2z"/>
	</g>
	<g>
		<path class="st0" d="M437.6,180.8h-1.9v-9.5h-1.2v-1.8h1.2v-4.1h1.9v4.1h2v1.8h-2V180.8z"/>
	</g>
</g>
<g>
	<g>
		<path class="st0" d="M152.9,109.4c-0.7-1.2-1.6-2-3.1-2c-1.6,0-3,1.2-3,2.8c0,1.6,1.6,2.3,2.8,2.8l1.2,0.5c2.4,1,4.3,2.2,4.3,5.1
			c0,3.2-2.5,5.6-5.7,5.6c-2.9,0-5.1-1.9-5.6-4.7l2-0.6c0.3,1.8,1.7,3.4,3.6,3.4c1.9,0,3.7-1.5,3.7-3.5c0-2.1-1.7-2.8-3.3-3.6
			l-1.1-0.5c-2.1-1-3.9-2-3.9-4.6c0-2.8,2.4-4.6,5.1-4.6c2,0,3.7,1,4.7,2.8L152.9,109.4z"/>
	</g>
	<g>
		<path class="st0" d="M164.9,119.7l5.2-13.8h2.2l-7.3,19.2l-7.3-19.2h2.2L164.9,119.7z"/>
	</g>
	<g>
		<path class="st0" d="M177.8,104.8l6.6,15.2l6.6-15.2l3.7,19.1h-2.1l-2.3-12.2l0,0l-5.8,13l-5.8-13l0,0l-2.3,12.2h-2.1L177.8,104.8
			z"/>
	</g>
	<g>
		<path class="st0" d="M202.7,115.3c-0.3-0.6-0.8-1.2-1.5-1.2s-1.4,0.5-1.4,1.2c0,1,1.3,1.4,2.6,2s2.6,1.3,2.6,3.2
			c0,2.1-1.7,3.7-3.8,3.7c-1.9,0-3.4-1.1-4-2.9l1.7-0.7c0.5,1.1,1,1.8,2.3,1.8c1,0,1.8-0.7,1.8-1.7c0-2.5-5.1-1.7-5.1-5.2
			c0-1.9,1.5-3.2,3.4-3.2c1.3,0,2.5,0.9,3,2.1L202.7,115.3z"/>
	</g>
</g>
<g>
	<g>
		<path class="st0" d="M312.1,125.2h3c3.3,0,6,1.2,6,4.9c0,1.5-0.6,2.7-1.8,3.5c2.2,0.5,3.4,2.5,3.4,4.6c0,3.6-2.9,5-6.5,5H312v-18
			H312.1z M314.1,133.2h0.8c2.3,0,4.2-0.3,4.2-3.1c0-2.7-1.7-3-4.2-3h-0.8V133.2z M314.1,141.4h2c2.3,0,4.6-0.6,4.6-3.3
			c0-2.8-2.7-3.2-4.9-3.2H314L314.1,141.4L314.1,141.4z"/>
	</g>
	<g>
		<path class="st0" d="M325.9,137.7c0-3.3,2.6-6,5.9-6s5.9,2.7,5.9,6s-2.6,5.9-5.9,5.9S325.9,141,325.9,137.7z M327.8,137.7
			c0,2.3,1.6,4.2,4,4.2s4-1.9,4-4.2s-1.6-4.2-4-4.2C329.5,133.5,327.8,135.4,327.8,137.7z"/>
	</g>
	<g>
		<path class="st0" d="M340.6,137.7c0-3.3,2.6-6,5.9-6s5.9,2.7,5.9,6s-2.6,5.9-5.9,5.9C343.2,143.6,340.6,141,340.6,137.7z
			 M342.5,137.7c0,2.3,1.6,4.2,4,4.2s4-1.9,4-4.2s-1.6-4.2-4-4.2S342.5,135.4,342.5,137.7z"/>
	</g>
	<g>
		<path class="st0" d="M360.8,134.7c-0.3-0.6-0.8-1.2-1.5-1.2s-1.4,0.5-1.4,1.2c0,1,1.3,1.4,2.6,2c1.3,0.6,2.6,1.3,2.6,3.2
			c0,2.1-1.7,3.7-3.8,3.7c-1.9,0-3.4-1.1-4-2.9l1.7-0.7c0.5,1.1,1,1.8,2.3,1.8c1,0,1.8-0.7,1.8-1.7c0-2.5-5.1-1.7-5.1-5.2
			c0-1.9,1.5-3.2,3.4-3.2c1.3,0,2.5,0.9,3,2.1L360.8,134.7z"/>
	</g>
	<g>
		<path class="st0" d="M369.1,143.3h-1.9v-9.5H366V132h1.2v-4h1.9v4.1h2v1.8h-2V143.3z"/>
	</g>
	<g>
		<path class="st0" d="M392.9,143.3H391v-1.6l0,0c-1,1.2-2.3,1.9-3.9,1.9c-3.3,0-5.4-2.8-5.4-5.9c0-3.2,2-6,5.4-6
			c1.5,0,2.9,0.7,3.9,1.9l0,0V132h1.9V143.3z M383.6,137.6c0,2.2,1.3,4.3,3.7,4.3c2.5,0,3.8-2,3.8-4.3s-1.4-4.1-3.8-4.1
			C385,133.5,383.6,135.4,383.6,137.6z"/>
	</g>
	<g>
		<path class="st0" d="M399.5,133.4L399.5,133.4c0.8-1.1,1.9-1.7,3.3-1.7c3.1,0,3.8,2.3,3.8,4.9v6.7h-1.9V137c0-1.8-0.1-3.5-2.4-3.5
			c-2.6,0-2.8,2.4-2.8,4.5v5.3h-1.9V132h1.9V133.4z"/>
	</g>
	<g>
		<path class="st0" d="M419.9,141.8L419.9,141.8c-1,1.2-2.4,1.9-3.9,1.9c-3.3,0-5.4-2.8-5.4-5.9c0-3.2,2-6,5.4-6
			c1.5,0,3,0.7,3.9,1.9l0,0v-10.1h1.9v19.8h-1.9V141.8z M412.5,137.6c0,2.2,1.3,4.3,3.7,4.3c2.5,0,3.8-2,3.8-4.3s-1.4-4.1-3.8-4.1
			C413.9,133.5,412.5,135.4,412.5,137.6z"/>
	</g>
	<g>
		<path class="st0" d="M435.1,125.2h9.4v1.9h-7.4v5.4h7.1v1.9h-7.1v7.1h7.4v1.9h-9.4V125.2z"/>
	</g>
	<g>
		<path class="st0" d="M451,133.4L451,133.4c0.8-1.1,1.9-1.7,3.3-1.7c3.1,0,3.8,2.3,3.8,4.9v6.7h-1.9V137c0-1.8-0.1-3.5-2.4-3.5
			c-2.6,0-2.8,2.4-2.8,4.5v5.3h-1.9V132h1.9V133.4z"/>
	</g>
	<g>
		<path class="st0" d="M467.5,134.7c-0.3-0.6-0.8-1.2-1.5-1.2s-1.4,0.5-1.4,1.2c0,1,1.3,1.4,2.6,2c1.3,0.6,2.6,1.3,2.6,3.2
			c0,2.1-1.7,3.7-3.8,3.7c-1.9,0-3.4-1.1-4-2.9l1.7-0.7c0.5,1.1,1,1.8,2.3,1.8c1,0,1.8-0.7,1.8-1.7c0-2.5-5.1-1.7-5.1-5.2
			c0-1.9,1.5-3.2,3.4-3.2c1.3,0,2.5,0.9,3,2.1L467.5,134.7z"/>
	</g>
	<g>
		<path class="st0" d="M474.7,138.1c0,2.1,1.5,3.8,3.7,3.8c1.6,0,2.7-1,3.4-2.3l1.6,0.9c-1.1,2-2.9,3.2-5.2,3.2
			c-3.4,0-5.5-2.6-5.5-5.8c0-3.3,1.9-6.1,5.5-6.1s5.5,3,5.3,6.4L474.7,138.1L474.7,138.1z M481.5,136.5c-0.3-1.6-1.6-3-3.3-3
			c-1.7,0-3.2,1.3-3.4,3H481.5z"/>
	</g>
	<g>
		<path class="st0" d="M489.3,133.3L489.3,133.3c0.6-0.9,1.6-1.5,2.8-1.5c1.3,0,2.5,0.7,3.1,1.9c0.7-1.2,2-1.9,3.4-1.9
			c2.9,0,3.6,2.4,3.6,4.7v6.9h-1.9v-6.5c0-1.5-0.1-3.3-2.1-3.3c-2.2,0-2.4,2.1-2.4,3.8v6h-1.9V137c0-1.4-0.2-3.4-2-3.4
			c-2.3,0-2.5,2.3-2.5,4v5.8h-1.9V132h1.9v1.3H489.3z"/>
	</g>
	<g>
		<path class="st0" d="M506.9,123.5h1.9v10.1l0,0c0.9-1.2,2.3-1.9,3.9-1.9c3.4,0,5.4,2.8,5.4,5.9c0,3.1-2.1,5.9-5.4,5.9
			c-1.6,0-3-0.6-3.9-1.9l0,0v1.6h-1.9L506.9,123.5L506.9,123.5z M508.7,137.6c0,2.2,1.3,4.3,3.7,4.3c2.5,0,3.8-2,3.8-4.3
			s-1.4-4.1-3.8-4.1C510.2,133.5,508.7,135.4,508.7,137.6z"/>
	</g>
	<g>
		<path class="st0" d="M523.9,143.3H522v-19.8h1.9V143.3z"/>
	</g>
	<g>
		<path class="st0" d="M529.6,138.1c0,2.1,1.5,3.8,3.7,3.8c1.6,0,2.7-1,3.4-2.3l1.6,0.9c-1.1,2-2.9,3.2-5.2,3.2
			c-3.4,0-5.5-2.6-5.5-5.8c0-3.3,1.9-6.1,5.5-6.1s5.5,3,5.3,6.4L529.6,138.1L529.6,138.1z M536.5,136.5c-0.3-1.6-1.6-3-3.3-3
			s-3.2,1.3-3.4,3H536.5z"/>
	</g>
</g>
<g>
	<g>
		<path class="st0" d="M68.6,426.7v5.4H41.1v-7.3c0-5.8,2.3-9.5,8.5-9.5c5.8,0,8.7,3.2,8.7,8.8v2.7h10.3V426.7z M53.9,426.7v-1.1
			c0-3.2-0.7-4.9-4.3-4.9c-3.5,0-4.1,2-4.1,5v0.9h8.4V426.7z"/>
	</g>
	<g>
		<path class="st0" d="M52.6,406L52.6,406c-1.6-1.1-2.4-2.6-2.4-4.5c0-0.7,0.2-1.5,0.4-2.1l4.7,0.6c-0.4,0.6-0.7,1.4-0.7,2.1
			c0,3.5,3.1,3.9,5.9,3.9h8.1v5.1H50.7V406H52.6z"/>
	</g>
	<g>
		<path class="st0" d="M60.5,391.8c2.3,0,4.8-0.9,4.8-3.5c0-1.7-1-2.7-2.4-3.4l0.8-4.7c3.6,1.2,5.6,4.4,5.6,8.1
			c0,5.5-3.9,8.9-9.4,8.9s-9.7-2.9-9.7-8.7c0-5.9,4.3-8.5,9.7-8.5h0.6V391.8z M57.3,384.8c-1.8,0.3-3.6,1.4-3.6,3.4s1.8,3.2,3.6,3.4
			V384.8z"/>
	</g>
	<g>
		<path class="st0" d="M67,363.9L67,363.9c1.5,1.1,2.3,3,2.3,4.9c0,5.3-4.8,8.3-9.6,8.3c-4.7,0-9.5-3-9.5-8.2c0-1.9,0.8-3.8,2.2-4.9
			v-0.1H37.7v-5.1h31v5.1L67,363.9L67,363.9z M59.7,363.4c-2.4,0-5,1.6-5,4.2s2.6,4.2,5,4.2s5-1.6,5-4.2S62.1,363.4,59.7,363.4z"/>
	</g>
	<g>
		<path class="st0" d="M43.2,347.5c1.7,0,3,1.4,3,3s-1.4,3-3,3s-3-1.4-3-3S41.5,347.5,43.2,347.5z M68.6,348v5.1H50.7V348H68.6z"/>
	</g>
	<g>
		<path class="st0" d="M56.2,330.1c-1.1,1.1-1.8,2.2-1.8,3.8c0,2.9,2.7,4.5,5.3,4.5c2.8,0,5.1-1.8,5.1-4.7c0-1.4-0.7-2.7-1.7-3.6H68
			c0.8,1.4,1.1,2.8,1.1,4.4c0,5.3-4.3,9.1-9.5,9.1c-5.3,0-9.6-3.9-9.6-9.3c0-1.4,0.4-2.9,1.1-4.2L56.2,330.1L56.2,330.1z"/>
	</g>
	<g>
		<path class="st0" d="M68.6,319.4v5.1H55v1.8h-4.3v-1.8h-6.1v-5.1h6.1v-3.1H55v3.1H68.6z"/>
	</g>
	<g>
		<path class="st0" d="M43.2,307.4c1.7,0,3,1.4,3,3s-1.4,3-3,3s-3-1.4-3-3S41.5,307.4,43.2,307.4z M68.6,307.9v5.1H50.7v-5.1H68.6z"
			/>
	</g>
	<g>
		<path class="st0" d="M60.8,294.9l-10.1-3.7v-5.6l18.3,8.3v2.6l-18.3,8.2v-5.6L60.8,294.9z"/>
	</g>
	<g>
		<path class="st0" d="M60.5,278.4c2.3,0,4.8-0.9,4.8-3.5c0-1.7-1-2.7-2.4-3.4l0.8-4.7c3.6,1.2,5.6,4.4,5.6,8.1
			c0,5.6-3.9,8.9-9.4,8.9s-9.7-2.9-9.7-8.7c0-5.9,4.3-8.5,9.7-8.5h0.6V278.4z M57.3,271.5c-1.8,0.3-3.6,1.4-3.6,3.4s1.8,3.2,3.6,3.4
			V271.5z"/>
	</g>
	<g>
		<path class="st0" d="M68.6,244.6v5.4H41.1v-7.3c0-5.8,2.3-9.5,8.5-9.5c5.8,0,8.7,3.2,8.7,8.8v2.7L68.6,244.6L68.6,244.6z
			 M53.9,244.6v-1.1c0-3.2-0.7-4.9-4.3-4.9c-3.5,0-4.1,2-4.1,5v0.9h8.4V244.6z"/>
	</g>
	<g>
		<path class="st0" d="M59.7,211.4c5.6,0,9.5,3.8,9.5,9.4s-4,9.4-9.5,9.4c-5.6,0-9.6-3.8-9.6-9.4S54.1,211.4,59.7,211.4z M59.7,225
			c2.4,0,5-1.6,5-4.2s-2.6-4.2-5-4.2c-2.5,0-5,1.6-5,4.2S57.2,225,59.7,225z"/>
	</g>
	<g>
		<path class="st0" d="M61,200.3l-10.9-4.4v-2.4l11.1-4.4l-10.5-3.8v-5.6L69,188v2.6l-10.9,3.8l10.9,4.3v2.6l-18.3,8.3V204L61,200.3
			z"/>
	</g>
	<g>
		<path class="st0" d="M60.5,172.6c2.3,0,4.8-0.9,4.8-3.5c0-1.7-1-2.7-2.4-3.4l0.8-4.7c3.6,1.2,5.6,4.4,5.6,8.1
			c0,5.6-3.9,8.9-9.4,8.9s-9.7-2.9-9.7-8.7c0-5.9,4.3-8.5,9.7-8.5h0.6V172.6z M57.3,165.6c-1.8,0.3-3.6,1.4-3.6,3.4s1.8,3.2,3.6,3.4
			V165.6z"/>
	</g>
	<g>
		<path class="st0" d="M52.6,151.5L52.6,151.5c-1.6-1.1-2.4-2.6-2.4-4.5c0-0.7,0.2-1.5,0.4-2.1l4.7,0.6c-0.4,0.6-0.7,1.4-0.7,2.1
			c0,3.5,3.1,3.9,5.9,3.9h8.1v5.1H50.7v-5.1H52.6z"/>
	</g>
</g>
<g>
	<g>
		<polygon class="st1" points="607.9,528.7 85.9,528.7 85.9,32.9 93.9,32.9 93.9,520.7 607.9,520.7 		"/>
	</g>
	<g>
		<g>
			<polygon class="st1" points="606.3,536.9 606.3,512.6 618.4,524.7 			"/>
		</g>
	</g>
	<g>
		<g>
			<polygon class="st1" points="77.8,34.5 102.1,34.5 89.9,22.4 			"/>
		</g>
	</g>
</g>
<g>
	<circle class="st2" cx="191.8" cy="65.4" r="13.6"/>
</g>
<g>
	<circle class="st2" cx="231" cy="113.3" r="13.6"/>
</g>
<g>
	<circle class="st2" cx="284.4" cy="136.2" r="13.6"/>
</g>
<g>
	<ellipse transform="matrix(0.3162 -0.9487 0.9487 0.3162 7.1387 349.9043)" class="st2" cx="246.3" cy="170" rx="13.6" ry="13.6"/>
</g>
<g>
	<circle class="st2" cx="356.9" cy="293.7" r="13.6"/>
</g>
<g>
	<circle class="st2" cx="410.9" cy="370.5" r="13.6"/>
</g>
<g>
	<circle class="st2" cx="502.4" cy="420.7" r="13.6"/>
</g>
<g>
	<circle class="st2" cx="577.6" cy="446.8" r="13.6"/>
</g>
<g>
	<path class="st0" d="M235.2,577.5h-5.3v-27.1h5.3V577.5z"/>
	<path class="st0" d="M244.9,561.5L244.9,561.5c1.1-1.6,2.9-2.2,4.7-2.2c4.8,0,6.1,3.3,6.1,7.5v10.8h-5v-9.4c0-2.1,0.1-4.9-2.7-4.9
		c-3,0-3,3.3-3,5.5v8.7h-5v-17.7h5V561.5z"/>
	<path class="st0" d="M265.8,577.5h-5v-13.4h-1.7v-4.2h1.7v-6h5v6h3.1v4.2h-3.1V577.5z"/>
	<path class="st0" d="M275,569.5c0,2.2,0.9,4.8,3.5,4.8c1.7,0,2.7-1,3.4-2.4l4.6,0.8c-1.2,3.5-4.3,5.5-8,5.5c-5.5,0-8.8-3.9-8.8-9.3
		s2.8-9.6,8.6-9.6c5.8,0,8.4,4.3,8.4,9.6v0.6H275z M281.9,566.4c-0.3-1.8-1.4-3.6-3.3-3.6c-2,0-3.1,1.7-3.4,3.6H281.9z"/>
	<path class="st0" d="M294.9,561.7L294.9,561.7c1.1-1.5,2.6-2.4,4.5-2.4c0.7,0,1.4,0.2,2.1,0.4l-0.6,4.7c-0.6-0.4-1.3-0.6-2.1-0.6
		c-3.5,0-3.9,3.1-3.9,5.8v8h-5v-17.7h5V561.7z"/>
	<path class="st0" d="M309,561.5c1.2-1.4,3-2.2,4.9-2.2c5,0,8.1,4.7,8.1,9.3c0,4.8-3,9.5-8.2,9.5c-1.8,0-3.7-0.8-4.7-2.2H309V587h-5
		v-27.1h5V561.5z M316.9,568.7c0-2.4-1.6-4.9-4.2-4.9s-4.2,2.6-4.2,4.9c0,2.4,1.6,5,4.2,5S316.9,571,316.9,568.7z"/>
	<path class="st0" d="M330.3,561.7L330.3,561.7c1.1-1.5,2.6-2.4,4.5-2.4c0.7,0,1.4,0.2,2.1,0.4l-0.6,4.7c-0.6-0.4-1.3-0.6-2.1-0.6
		c-3.5,0-3.9,3.1-3.9,5.8v8h-5v-17.7h5V561.7z"/>
	<path class="st0" d="M343.4,569.5c0,2.2,0.9,4.8,3.5,4.8c1.7,0,2.7-1,3.4-2.4l4.6,0.8c-1.2,3.5-4.3,5.5-8,5.5
		c-5.5,0-8.8-3.9-8.8-9.3s2.8-9.6,8.6-9.6c5.8,0,8.4,4.3,8.4,9.6v0.6H343.4z M350.3,566.4c-0.3-1.8-1.4-3.6-3.3-3.6
		c-2,0-3.1,1.7-3.4,3.6H350.3z"/>
	<path class="st0" d="M363.9,577.5h-5v-13.4h-1.7v-4.2h1.7v-6h5v6h3.1v4.2h-3.1V577.5z"/>
	<path class="st0" d="M385.7,577.5h-5v-1.6h-0.1c-1.1,1.4-3,2.2-4.8,2.2c-5.2,0-8.1-4.7-8.1-9.5c0-4.7,3-9.3,8.1-9.3
		c1.8,0,3.7,0.8,4.9,2.2v-1.7h5V577.5z M381.3,568.7c0-2.4-1.6-4.9-4.2-4.9c-2.6,0-4.2,2.6-4.2,4.9c0,2.4,1.6,5,4.2,5
		C379.7,573.6,381.3,571,381.3,568.7z"/>
	<path class="st0" d="M390.3,547h5v14.5c1.2-1.4,3-2.2,4.9-2.2c5,0,8.1,4.7,8.1,9.3c0,4.8-3,9.5-8.2,9.5c-1.8,0-3.7-0.8-4.7-2.2
		h-0.1v1.7h-5V547z M403.2,568.7c0-2.4-1.6-4.9-4.2-4.9s-4.2,2.6-4.2,4.9c0,2.4,1.6,5,4.2,5S403.2,571,403.2,568.7z"/>
	<path class="st0" d="M417.3,552.4c0,1.7-1.3,3-3,3c-1.7,0-3-1.3-3-3c0-1.6,1.3-3,3-3C416,549.5,417.3,550.8,417.3,552.4z
		 M416.8,577.5h-5v-17.7h5V577.5z"/>
	<path class="st0" d="M426.6,577.5h-5V547h5V577.5z"/>
	<path class="st0" d="M436.8,552.4c0,1.7-1.3,3-3,3c-1.7,0-3-1.3-3-3c0-1.6,1.3-3,3-3C435.5,549.5,436.8,550.8,436.8,552.4z
		 M436.3,577.5h-5v-17.7h5V577.5z"/>
	<path class="st0" d="M446.7,577.5h-5v-13.4h-1.7v-4.2h1.7v-6h5v6h3.1v4.2h-3.1V577.5z"/>
	<path class="st0" d="M449.4,559.9h5.7l4.2,10l4.5-10h5.6L456.6,587H451l5.8-12.1L449.4,559.9z"/>
</g>
</svg>
