<svg xmlns="http://www.w3.org/2000/svg" xmlns:xlink="http://www.w3.org/1999/xlink" version="1.1" class="marks" width="353" height="347" viewBox="0 0 353 347"><rect width="353" height="347" fill="white"/><g fill="none" stroke-miterlimit="10" transform="translate(47,10)"><g class="mark-group role-frame root" role="graphics-object" aria-roledescription="group mark container"><g transform="translate(0,0)"><path class="background" aria-hidden="true" d="M0.5,0.5h300v300h-300Z" stroke="#ddd"/><g><g class="mark-group role-axis" aria-hidden="true"><g transform="translate(0.5,300.5)"><path class="background" aria-hidden="true" d="M0,0h0v0h0Z" pointer-events="none"/><g><g class="mark-rule role-axis-grid" pointer-events="none"><line transform="translate(0,-300)" x2="0" y2="300" stroke="#ddd" stroke-width="1" opacity="1"/><line transform="translate(38,-300)" x2="0" y2="300" stroke="#ddd" stroke-width="1" opacity="1"/><line transform="translate(75,-300)" x2="0" y2="300" stroke="#ddd" stroke-width="1" opacity="1"/><line transform="translate(113,-300)" x2="0" y2="300" stroke="#ddd" stroke-width="1" opacity="1"/><line transform="translate(150,-300)" x2="0" y2="300" stroke="#ddd" stroke-width="1" opacity="1"/><line transform="translate(188,-300)" x2="0" y2="300" stroke="#ddd" stroke-width="1" opacity="1"/><line transform="translate(225,-300)" x2="0" y2="300" stroke="#ddd" stroke-width="1" opacity="1"/><line transform="translate(263,-300)" x2="0" y2="300" stroke="#ddd" stroke-width="1" opacity="1"/><line transform="translate(300,-300)" x2="0" y2="300" stroke="#ddd" stroke-width="1" opacity="1"/></g></g><path class="foreground" aria-hidden="true" d="" pointer-events="none" display="none"/></g></g><g class="mark-group role-axis" aria-hidden="true"><g transform="translate(0.5,0.5)"><path class="background" aria-hidden="true" d="M0,0h0v0h0Z" pointer-events="none"/><g><g class="mark-rule role-axis-grid" pointer-events="none"><line transform="translate(0,300)" x2="300" y2="0" stroke="#ddd" stroke-width="1" opacity="1"/><line transform="translate(0,270)" x2="300" y2="0" stroke="#ddd" stroke-width="1" opacity="1"/><line transform="translate(0,240)" x2="300" y2="0" stroke="#ddd" stroke-width="1" opacity="1"/><line transform="translate(0,210)" x2="300" y2="0" stroke="#ddd" stroke-width="1" opacity="1"/><line transform="translate(0,180)" x2="300" y2="0" stroke="#ddd" stroke-width="1" opacity="1"/><line transform="translate(0,150)" x2="300" y2="0" stroke="#ddd" stroke-width="1" opacity="1"/><line transform="translate(0,120)" x2="300" y2="0" stroke="#ddd" stroke-width="1" opacity="1"/><line transform="translate(0,90)" x2="300" y2="0" stroke="#ddd" stroke-width="1" opacity="1"/><line transform="translate(0,60)" x2="300" y2="0" stroke="#ddd" stroke-width="1" opacity="1"/><line transform="translate(0,30)" x2="300" y2="0" stroke="#ddd" stroke-width="1" opacity="1"/><line transform="translate(0,0)" x2="300" y2="0" stroke="#ddd" stroke-width="1" opacity="1"/></g></g><path class="foreground" aria-hidden="true" d="" pointer-events="none" display="none"/></g></g><g class="mark-group role-axis" role="graphics-symbol" aria-roledescription="axis" aria-label="X-axis titled 'x' for a linear scale with values from −2 to 2"><g transform="translate(0.5,300.5)"><path class="background" aria-hidden="true" d="M0,0h0v0h0Z" pointer-events="none"/><g><g class="mark-rule role-axis-tick" pointer-events="none"><line transform="translate(0,0)" x2="0" y2="5" stroke="#888" stroke-width="1" opacity="1"/><line transform="translate(38,0)" x2="0" y2="5" stroke="#888" stroke-width="1" opacity="1"/><line transform="translate(75,0)" x2="0" y2="5" stroke="#888" stroke-width="1" opacity="1"/><line transform="translate(113,0)" x2="0" y2="5" stroke="#888" stroke-width="1" opacity="1"/><line transform="translate(150,0)" x2="0" y2="5" stroke="#888" stroke-width="1" opacity="1"/><line transform="translate(188,0)" x2="0" y2="5" stroke="#888" stroke-width="1" opacity="1"/><line transform="translate(225,0)" x2="0" y2="5" stroke="#888" stroke-width="1" opacity="1"/><line transform="translate(263,0)" x2="0" y2="5" stroke="#888" stroke-width="1" opacity="1"/><line transform="translate(300,0)" x2="0" y2="5" stroke="#888" stroke-width="1" opacity="1"/></g><g class="mark-text role-axis-label" pointer-events="none"><text text-anchor="start" transform="translate(0,15)" font-family="sans-serif" font-size="10px" fill="#000" opacity="1">−2.0</text><text text-anchor="middle" transform="translate(37.5,15)" font-family="sans-serif" font-size="10px" fill="#000" opacity="1">−1.5</text><text text-anchor="middle" transform="translate(75,15)" font-family="sans-serif" font-size="10px" fill="#000" opacity="1">−1.0</text><text text-anchor="middle" transform="translate(112.5,15)" font-family="sans-serif" font-size="10px" fill="#000" opacity="1">−0.5</text><text text-anchor="middle" transform="translate(150,15)" font-family="sans-serif" font-size="10px" fill="#000" opacity="1">0.0</text><text text-anchor="middle" transform="translate(187.5,15)" font-family="sans-serif" font-size="10px" fill="#000" opacity="1">0.5</text><text text-anchor="middle" transform="translate(225,15)" font-family="sans-serif" font-size="10px" fill="#000" opacity="1">1.0</text><text text-anchor="middle" transform="translate(262.5,15)" font-family="sans-serif" font-size="10px" fill="#000" opacity="1">1.5</text><text text-anchor="end" transform="translate(300,15)" font-family="sans-serif" font-size="10px" fill="#000" opacity="1">2.0</text></g><g class="mark-rule role-axis-domain" pointer-events="none"><line transform="translate(0,0)" x2="300" y2="0" stroke="#888" stroke-width="1" opacity="1"/></g><g class="mark-text role-axis-title" pointer-events="none"><text text-anchor="middle" transform="translate(150,30)" font-family="sans-serif" font-size="11px" font-weight="bold" fill="#000" opacity="1">x</text></g></g><path class="foreground" aria-hidden="true" d="" pointer-events="none" display="none"/></g></g><g class="mark-group role-axis" role="graphics-symbol" aria-roledescription="axis" aria-label="Y-axis titled 'y' for a linear scale with values from −3 to 2"><g transform="translate(0.5,0.5)"><path class="background" aria-hidden="true" d="M0,0h0v0h0Z" pointer-events="none"/><g><g class="mark-rule role-axis-tick" pointer-events="none"><line transform="translate(0,300)" x2="-5" y2="0" stroke="#888" stroke-width="1" opacity="1"/><line transform="translate(0,270)" x2="-5" y2="0" stroke="#888" stroke-width="1" opacity="1"/><line transform="translate(0,240)" x2="-5" y2="0" stroke="#888" stroke-width="1" opacity="1"/><line transform="translate(0,210)" x2="-5" y2="0" stroke="#888" stroke-width="1" opacity="1"/><line transform="translate(0,180)" x2="-5" y2="0" stroke="#888" stroke-width="1" opacity="1"/><line transform="translate(0,150)" x2="-5" y2="0" stroke="#888" stroke-width="1" opacity="1"/><line transform="translate(0,120)" x2="-5" y2="0" stroke="#888" stroke-width="1" opacity="1"/><line transform="translate(0,90)" x2="-5" y2="0" stroke="#888" stroke-width="1" opacity="1"/><line transform="translate(0,60)" x2="-5" y2="0" stroke="#888" stroke-width="1" opacity="1"/><line transform="translate(0,30)" x2="-5" y2="0" stroke="#888" stroke-width="1" opacity="1"/><line transform="translate(0,0)" x2="-5" y2="0" stroke="#888" stroke-width="1" opacity="1"/></g><g class="mark-text role-axis-label" pointer-events="none"><text text-anchor="end" transform="translate(-7,303)" font-family="sans-serif" font-size="10px" fill="#000" opacity="1">−3.0</text><text text-anchor="end" transform="translate(-7,273)" font-family="sans-serif" font-size="10px" fill="#000" opacity="1">−2.5</text><text text-anchor="end" transform="translate(-7,243)" font-family="sans-serif" font-size="10px" fill="#000" opacity="1">−2.0</text><text text-anchor="end" transform="translate(-7,213)" font-family="sans-serif" font-size="10px" fill="#000" opacity="1">−1.5</text><text text-anchor="end" transform="translate(-7,183)" font-family="sans-serif" font-size="10px" fill="#000" opacity="1">−1.0</text><text text-anchor="end" transform="translate(-7,153)" font-family="sans-serif" font-size="10px" fill="#000" opacity="1">−0.5</text><text text-anchor="end" transform="translate(-7,123)" font-family="sans-serif" font-size="10px" fill="#000" opacity="1">0.0</text><text text-anchor="end" transform="translate(-7,93.00000000000001)" font-family="sans-serif" font-size="10px" fill="#000" opacity="1">0.5</text><text text-anchor="end" transform="translate(-7,62.999999999999986)" font-family="sans-serif" font-size="10px" fill="#000" opacity="1">1.0</text><text text-anchor="end" transform="translate(-7,32.99999999999999)" font-family="sans-serif" font-size="10px" fill="#000" opacity="1">1.5</text><text text-anchor="end" transform="translate(-7,3)" font-family="sans-serif" font-size="10px" fill="#000" opacity="1">2.0</text></g><g class="mark-rule role-axis-domain" pointer-events="none"><line transform="translate(0,300)" x2="0" y2="-300" stroke="#888" stroke-width="1" opacity="1"/></g><g class="mark-text role-axis-title" pointer-events="none"><text text-anchor="middle" transform="translate(-30.7412109375,150) rotate(-90) translate(0,-2)" font-family="sans-serif" font-size="11px" font-weight="bold" fill="#000" opacity="1">y</text></g></g><path class="foreground" aria-hidden="true" d="" pointer-events="none" display="none"/></g></g><g class="mark-symbol role-mark marks" role="graphics-object" aria-roledescription="symbol mark container"><path aria-label="x: 0.496714153011; y: 0.324083969395" role="graphics-symbol" aria-roledescription="circle" transform="translate(187.25356147584247,100.5549618363123)" d="M2.739,0A2.739,2.739,0,1,1,-2.739,0A2.739,2.739,0,1,1,2.739,0" fill="#4c78a8" stroke-width="2" opacity="0.7"/><path aria-label="x: −0.138264301171; y: −0.385082280416" role="graphics-symbol" aria-roledescription="circle" transform="translate(139.63017741216115,143.10493682497898)" d="M2.739,0A2.739,2.739,0,1,1,-2.739,0A2.739,2.739,0,1,1,2.739,0" fill="#4c78a8" stroke-width="2" opacity="0.7"/><path aria-label="x: 0.647688538101; y: −0.676922000306" role="graphics-symbol" aria-roledescription="circle" transform="translate(198.57664035755192,160.61532001835752)" d="M2.739,0A2.739,2.739,0,1,1,-2.739,0A2.739,2.739,0,1,1,2.739,0" fill="#4c78a8" stroke-width="2" opacity="0.7"/><path aria-label="x: 1.52302985641; y: 0.611676288841" role="graphics-symbol" aria-roledescription="circle" transform="translate(264.2272392306019,83.29942266954794)" d="M2.739,0A2.739,2.739,0,1,1,-2.739,0A2.739,2.739,0,1,1,2.739,0" fill="#4c78a8" stroke-width="2" opacity="0.7"/><path aria-label="x: −0.234153374723; y: 1.0309995225" role="graphics-symbol" aria-roledescription="circle" transform="translate(132.4384968957498,58.14002865024294)" d="M2.739,0A2.739,2.739,0,1,1,-2.739,0A2.739,2.739,0,1,1,2.739,0" fill="#4c78a8" stroke-width="2" opacity="0.7"/><path aria-label="x: −0.234136956949; y: 0.931280119116" role="graphics-symbol" aria-roledescription="circle" transform="translate(132.43972822881148,64.12319285302807)" d="M2.739,0A2.739,2.739,0,1,1,-2.739,0A2.739,2.739,0,1,1,2.739,0" fill="#4c78a8" stroke-width="2" opacity="0.7"/><path aria-label="x: 1.57921281551; y: −0.839217523223" role="graphics-symbol" aria-roledescription="circle" transform="translate(268.44096116305434,170.3530513933583)" d="M2.739,0A2.739,2.739,0,1,1,-2.739,0A2.739,2.739,0,1,1,2.739,0" fill="#4c78a8" stroke-width="2" opacity="0.7"/><path aria-label="x: 0.767434729153; y: −0.309212375851" role="graphics-symbol" aria-roledescription="circle" transform="translate(207.55760468646815,138.55274255107287)" d="M2.739,0A2.739,2.739,0,1,1,-2.739,0A2.739,2.739,0,1,1,2.739,0" fill="#4c78a8" stroke-width="2" opacity="0.7"/><path aria-label="x: −0.469474385935; y: 0.331263431404" role="graphics-symbol" aria-roledescription="circle" transform="translate(114.78942105487859,100.12419411578617)" d="M2.739,0A2.739,2.739,0,1,1,-2.739,0A2.739,2.739,0,1,1,2.739,0" fill="#4c78a8" stroke-width="2" opacity="0.7"/><path aria-label="x: 0.542560043586; y: 0.975545127122" role="graphics-symbol" aria-roledescription="circle" transform="translate(190.69200326894733,61.467292372658456)" d="M2.739,0A2.739,2.739,0,1,1,-2.739,0A2.739,2.739,0,1,1,2.739,0" fill="#4c78a8" stroke-width="2" opacity="0.7"/><path aria-label="x: −0.463417692812; y: −0.479174237845" role="graphics-symbol" aria-roledescription="circle" transform="translate(115.24367303906533,148.75045427071743)" d="M2.739,0A2.739,2.739,0,1,1,-2.739,0A2.739,2.739,0,1,1,2.739,0" fill="#4c78a8" stroke-width="2" opacity="0.7"/><path aria-label="x: −0.46572975357; y: −0.185658976664" role="graphics-symbol" aria-roledescription="circle" transform="translate(115.07026848223073,131.139538599829)" d="M2.739,0A2.739,2.739,0,1,1,-2.739,0A2.739,2.739,0,1,1,2.739,0" fill="#4c78a8" stroke-width="2" opacity="0.7"/><path aria-label="x: 0.241962271566; y: −1.10633497401" role="graphics-symbol" aria-roledescription="circle" transform="translate(168.14717036745256,186.38009844036168)" d="M2.739,0A2.739,2.739,0,1,1,-2.739,0A2.739,2.739,0,1,1,2.739,0" fill="#4c78a8" stroke-width="2" opacity="0.7"/><path aria-label="x: −1.91328024466; y: −1.19620662408" role="graphics-symbol" aria-roledescription="circle" transform="translate(6.503981650665159,191.77239744484024)" d="M2.739,0A2.739,2.739,0,1,1,-2.739,0A2.739,2.739,0,1,1,2.739,0" fill="#4c78a8" stroke-width="2" opacity="0.7"/><path aria-label="x: −1.72491783251; y: 0.812525822394" role="graphics-symbol" aria-roledescription="circle" transform="translate(20.631162561522544,71.24845065634811)" d="M2.739,0A2.739,2.739,0,1,1,-2.739,0A2.739,2.739,0,1,1,2.739,0" fill="#4c78a8" stroke-width="2" opacity="0.7"/><path aria-label="x: −0.562287529241; y: 1.35624002857" role="graphics-symbol" aria-roledescription="circle" transform="translate(107.82843530692703,38.62559828575065)" d="M2.739,0A2.739,2.739,0,1,1,-2.739,0A2.739,2.739,0,1,1,2.739,0" fill="#4c78a8" stroke-width="2" opacity="0.7"/><path aria-label="x: −1.01283112033; y: −0.0720101215803" role="graphics-symbol" aria-roledescription="circle" transform="translate(74.03766597491821,124.32060729482004)" d="M2.739,0A2.739,2.739,0,1,1,-2.739,0A2.739,2.739,0,1,1,2.739,0" fill="#4c78a8" stroke-width="2" opacity="0.7"/><path aria-label="x: 0.314247332595; y: 1.00353289789" role="graphics-symbol" aria-roledescription="circle" transform="translate(173.56854994464555,59.78802612647858)" d="M2.739,0A2.739,2.739,0,1,1,-2.739,0A2.739,2.739,0,1,1,2.739,0" fill="#4c78a8" stroke-width="2" opacity="0.7"/><path aria-label="x: −0.908024075521; y: 0.361636025048" role="graphics-symbol" aria-roledescription="circle" transform="translate(81.89819433590915,98.30183849714196)" d="M2.739,0A2.739,2.739,0,1,1,-2.739,0A2.739,2.739,0,1,1,2.739,0" fill="#4c78a8" stroke-width="2" opacity="0.7"/><path aria-label="x: −1.41230370134; y: −0.645119754605" role="graphics-symbol" aria-roledescription="circle" transform="translate(44.07722239985312,158.70718527630746)" d="M2.739,0A2.739,2.739,0,1,1,-2.739,0A2.739,2.739,0,1,1,2.739,0" fill="#4c78a8" stroke-width="2" opacity="0.7"/><path aria-label="x: 1.46564876892; y: 0.361395605508" role="graphics-symbol" aria-roledescription="circle" transform="translate(259.92365766911655,98.31626366949517)" d="M2.739,0A2.739,2.739,0,1,1,-2.739,0A2.739,2.739,0,1,1,2.739,0" fill="#4c78a8" stroke-width="2" opacity="0.7"/><path aria-label="x: −0.225776300487; y: 1.53803656647" role="graphics-symbol" aria-roledescription="circle" transform="translate(133.06677746350982,27.717806012041834)" d="M2.739,0A2.739,2.739,0,1,1,-2.739,0A2.739,2.739,0,1,1,2.739,0" fill="#4c78a8" stroke-width="2" opacity="0.7"/><path aria-label="x: 0.0675282046879; y: −0.03582603911" role="graphics-symbol" aria-roledescription="circle" transform="translate(155.06461535159428,122.14956234659708)" d="M2.739,0A2.739,2.739,0,1,1,-2.739,0A2.739,2.739,0,1,1,2.739,0" fill="#4c78a8" stroke-width="2" opacity="0.7"/><path aria-label="x: −1.42474818621; y: 1.56464365581" role="graphics-symbol" aria-roledescription="circle" transform="translate(43.14388603399074,26.121380651159654)" d="M2.739,0A2.739,2.739,0,1,1,-2.739,0A2.739,2.739,0,1,1,2.739,0" fill="#4c78a8" stroke-width="2" opacity="0.7"/><path aria-label="x: −0.544382724525; y: −2.61974510409" role="graphics-symbol" aria-roledescription="circle" transform="translate(109.1712956606113,277.18470624538463)" d="M2.739,0A2.739,2.739,0,1,1,-2.739,0A2.739,2.739,0,1,1,2.739,0" fill="#4c78a8" stroke-width="2" opacity="0.7"/><path aria-label="x: 0.11092258971; y: 0.821902504375" role="graphics-symbol" aria-roledescription="circle" transform="translate(158.31919422823998,70.68584973748655)" d="M2.739,0A2.739,2.739,0,1,1,-2.739,0A2.739,2.739,0,1,1,2.739,0" fill="#4c78a8" stroke-width="2" opacity="0.7"/><path aria-label="x: −1.15099357742; y: 0.0870470682382" role="graphics-symbol" aria-roledescription="circle" transform="translate(63.67548169332729,114.77717590570973)" d="M2.739,0A2.739,2.739,0,1,1,-2.739,0A2.739,2.739,0,1,1,2.739,0" fill="#4c78a8" stroke-width="2" opacity="0.7"/><path aria-label="x: 0.375698018346; y: −0.299007350466" role="graphics-symbol" aria-roledescription="circle" transform="translate(178.17735137592538,137.9404410279521)" d="M2.739,0A2.739,2.739,0,1,1,-2.739,0A2.739,2.739,0,1,1,2.739,0" fill="#4c78a8" stroke-width="2" opacity="0.7"/><path aria-label="x: −0.600638689919; y: 0.0917607765355" role="graphics-symbol" aria-roledescription="circle" transform="translate(104.95209825608963,114.49435340786984)" d="M2.739,0A2.739,2.739,0,1,1,-2.739,0A2.739,2.739,0,1,1,2.739,0" fill="#4c78a8" stroke-width="2" opacity="0.7"/><path aria-label="x: −0.291693749793; y: −1.9875689146" role="graphics-symbol" aria-roledescription="circle" transform="translate(128.12296876550425,239.25413487605357)" d="M2.739,0A2.739,2.739,0,1,1,-2.739,0A2.739,2.739,0,1,1,2.739,0" fill="#4c78a8" stroke-width="2" opacity="0.7"/><path aria-label="x: −0.601706612229; y: −0.219671887838" role="graphics-symbol" aria-roledescription="circle" transform="translate(104.87200408279523,133.18031327025074)" d="M2.739,0A2.739,2.739,0,1,1,-2.739,0A2.739,2.739,0,1,1,2.739,0" fill="#4c78a8" stroke-width="2" opacity="0.7"/><path aria-label="x: 1.85227818451; y: 0.357112571512" role="graphics-symbol" aria-roledescription="circle" transform="translate(288.92086383817036,98.57324570929524)" d="M2.739,0A2.739,2.739,0,1,1,-2.739,0A2.739,2.739,0,1,1,2.739,0" fill="#4c78a8" stroke-width="2" opacity="0.7"/><path aria-label="x: −0.0134972247379; y: 1.47789404474" role="graphics-symbol" aria-roledescription="circle" transform="translate(148.98770814465496,31.326357315509036)" d="M2.739,0A2.739,2.739,0,1,1,-2.739,0A2.739,2.739,0,1,1,2.739,0" fill="#4c78a8" stroke-width="2" opacity="0.7"/><path aria-label="x: −1.05771092896; y: −0.518270218274" role="graphics-symbol" aria-roledescription="circle" transform="translate(70.6716803283075,151.09621309641884)" d="M2.739,0A2.739,2.739,0,1,1,-2.739,0A2.739,2.739,0,1,1,2.739,0" fill="#4c78a8" stroke-width="2" opacity="0.7"/><path aria-label="x: 0.822544912103; y: −0.808493602893" role="graphics-symbol" aria-roledescription="circle" transform="translate(211.69086840773917,168.50961617359127)" d="M2.739,0A2.739,2.739,0,1,1,-2.739,0A2.739,2.739,0,1,1,2.739,0" fill="#4c78a8" stroke-width="2" opacity="0.7"/><path aria-label="x: −1.22084364997; y: −0.501757043585" role="graphics-symbol" aria-roledescription="circle" transform="translate(58.43672625217333,150.1054226150722)" d="M2.739,0A2.739,2.739,0,1,1,-2.739,0A2.739,2.739,0,1,1,2.739,0" fill="#4c78a8" stroke-width="2" opacity="0.7"/><path aria-label="x: 0.208863595005; y: 0.915402117702" role="graphics-symbol" aria-roledescription="circle" transform="translate(165.66476962535666,65.07587293787554)" d="M2.739,0A2.739,2.739,0,1,1,-2.739,0A2.739,2.739,0,1,1,2.739,0" fill="#4c78a8" stroke-width="2" opacity="0.7"/><path aria-label="x: −1.95967012388; y: 0.32875110966" role="graphics-symbol" aria-roledescription="circle" transform="translate(3.0247407090168323,100.27493342041893)" d="M2.739,0A2.739,2.739,0,1,1,-2.739,0A2.739,2.739,0,1,1,2.739,0" fill="#4c78a8" stroke-width="2" opacity="0.7"/><path aria-label="x: −1.3281860489; y: −0.529760203767" role="graphics-symbol" aria-roledescription="circle" transform="translate(50.38604633261771,151.78561222602232)" d="M2.739,0A2.739,2.739,0,1,1,-2.739,0A2.739,2.739,0,1,1,2.739,0" fill="#4c78a8" stroke-width="2" opacity="0.7"/><path aria-label="x: 0.196861235869; y: 0.513267433113" role="graphics-symbol" aria-roledescription="circle" transform="translate(164.76459269018426,89.20395401319863)" d="M2.739,0A2.739,2.739,0,1,1,-2.739,0A2.739,2.739,0,1,1,2.739,0" fill="#4c78a8" stroke-width="2" opacity="0.7"/><path aria-label="x: 0.738466579995; y: 0.097077549348" role="graphics-symbol" aria-roledescription="circle" transform="translate(205.3849934996558,114.17534703911755)" d="M2.739,0A2.739,2.739,0,1,1,-2.739,0A2.739,2.739,0,1,1,2.739,0" fill="#4c78a8" stroke-width="2" opacity="0.7"/><path aria-label="x: 0.17136828119; y: 0.968644990533" role="graphics-symbol" aria-roledescription="circle" transform="translate(162.8526210892478,61.88130056802665)" d="M2.739,0A2.739,2.739,0,1,1,-2.739,0A2.739,2.739,0,1,1,2.739,0" fill="#4c78a8" stroke-width="2" opacity="0.7"/><path aria-label="x: −0.115648282388; y: −0.702053093877" role="graphics-symbol" aria-roledescription="circle" transform="translate(141.32637882088196,162.12318563264114)" d="M2.739,0A2.739,2.739,0,1,1,-2.739,0A2.739,2.739,0,1,1,2.739,0" fill="#4c78a8" stroke-width="2" opacity="0.7"/><path aria-label="x: −0.301103695589; y: −0.327662146598" role="graphics-symbol" aria-roledescription="circle" transform="translate(127.41722283080334,139.6597287958661)" d="M2.739,0A2.739,2.739,0,1,1,-2.739,0A2.739,2.739,0,1,1,2.739,0" fill="#4c78a8" stroke-width="2" opacity="0.7"/><path aria-label="x: −1.47852199037; y: −0.392108153132" role="graphics-symbol" aria-roledescription="circle" transform="translate(39.11085072244295,143.52648918792946)" d="M2.739,0A2.739,2.739,0,1,1,-2.739,0A2.739,2.739,0,1,1,2.739,0" fill="#4c78a8" stroke-width="2" opacity="0.7"/><path aria-label="x: −0.719844208395; y: −1.46351494813" role="graphics-symbol" aria-roledescription="circle" transform="translate(96.01168437039685,207.81089688792713)" d="M2.739,0A2.739,2.739,0,1,1,-2.739,0A2.739,2.739,0,1,1,2.739,0" fill="#4c78a8" stroke-width="2" opacity="0.7"/><path aria-label="x: −0.46063877096; y: 0.296120277065" role="graphics-symbol" aria-roledescription="circle" transform="translate(115.45209217801595,102.23278337612544)" d="M2.739,0A2.739,2.739,0,1,1,-2.739,0A2.739,2.739,0,1,1,2.739,0" fill="#4c78a8" stroke-width="2" opacity="0.7"/><path aria-label="x: 1.05712222622; y: 0.26105527218" role="graphics-symbol" aria-roledescription="circle" transform="translate(229.28416696641867,104.33668366920665)" d="M2.739,0A2.739,2.739,0,1,1,-2.739,0A2.739,2.739,0,1,1,2.739,0" fill="#4c78a8" stroke-width="2" opacity="0.7"/><path aria-label="x: 0.343618289568; y: 0.00511345664246" role="graphics-symbol" aria-roledescription="circle" transform="translate(175.7713717176346,119.69319260145235)" d="M2.739,0A2.739,2.739,0,1,1,-2.739,0A2.739,2.739,0,1,1,2.739,0" fill="#4c78a8" stroke-width="2" opacity="0.7"/><path aria-label="x: −1.76304015536; y: −0.234587133375" role="graphics-symbol" aria-roledescription="circle" transform="translate(17.771988347794952,134.07522800250882)" d="M2.739,0A2.739,2.739,0,1,1,-2.739,0A2.739,2.739,0,1,1,2.739,0" fill="#4c78a8" stroke-width="2" opacity="0.7"/></g></g><path class="foreground" aria-hidden="true" d="" display="none"/></g></g></g></svg>